<svg version="1.1" id="Layer_1" xmlns="http://www.w3.org/2000/svg" xmlns:xlink="http://www.w3.org/1999/xlink" x="0px" y="0px"
	 width="100%" viewBox="0 0 512 512" enable-background="new 0 0 512 512" xml:space="preserve">
<path fill="#000000" opacity="1.000000" stroke="none" 
	d="
M1.000000,319.000000 
	C1.000000,213.048096 1.000000,107.096199 1.000000,1.072150 
	C171.666656,1.072150 342.333313,1.072150 513.000000,1.072150 
	C513.000000,43.104107 513.000000,85.085068 512.620728,127.738434 
	C511.442078,125.151306 510.723022,121.869614 509.831207,118.635574 
	C497.760620,74.863525 469.780457,45.836754 427.163391,31.242645 
	C409.740570,25.276247 391.451202,24.660198 373.040253,26.897064 
	C353.616455,29.256987 336.278198,36.579475 320.254547,47.403488 
	C317.101501,49.533367 315.473694,52.766392 316.361633,56.771324 
	C317.915771,63.781082 324.844360,65.032845 331.385254,61.296524 
	C339.968231,56.393661 348.734680,51.494034 357.984192,48.145126 
	C374.808044,42.053795 392.197266,41.527321 409.890076,44.889145 
	C431.498810,48.995033 449.829956,59.201237 465.390991,74.184258 
	C473.601105,82.089394 480.106812,91.568558 485.139313,102.099541 
	C496.982727,126.882843 499.010742,152.272491 491.154449,178.452362 
	C486.877716,192.704086 479.612274,205.269974 469.993195,216.771866 
	C460.971649,227.559250 449.907532,235.228943 437.304626,242.599686 
	C438.352814,238.656479 439.891296,235.578140 439.806976,232.544922 
	C439.683502,228.103088 436.867401,224.772232 432.282227,224.220993 
	C428.285553,223.740509 424.844757,225.520996 423.244812,229.479034 
	C420.073212,237.325058 417.030884,245.225250 414.059631,253.149734 
	C411.684753,259.483490 413.598419,263.992249 420.001068,266.444611 
	C428.047699,269.526672 436.208740,272.317474 444.365570,275.101685 
	C449.387451,276.815796 454.838257,272.977509 454.999542,267.798462 
	C455.164215,262.511810 453.149384,260.026031 446.629364,257.471619 
	C459.189545,250.050659 470.989258,241.788376 480.867706,230.784988 
	C495.522034,214.461899 505.545776,195.951111 510.098267,174.460037 
	C510.576385,172.203079 512.009766,170.148468 513.000000,168.000000 
	C513.000000,282.951874 513.000000,397.903717 513.000000,512.927795 
	C342.452911,512.927795 171.905807,512.927795 1.000000,512.927795 
	C1.000000,453.311798 1.000000,393.622894 1.252139,333.135559 
	C8.503642,342.079773 19.401009,340.754333 29.580162,342.405151 
	C27.651321,346.946045 22.727911,351.434692 26.166925,356.851471 
	C28.896200,361.150360 32.980511,364.588928 36.290592,368.220184 
	C32.543159,370.278870 28.221277,373.374634 28.977932,379.994873 
	C29.820541,387.367279 34.895443,391.050903 40.845879,393.661865 
	C39.005993,400.606873 37.068890,407.254486 35.505882,413.988953 
	C33.604420,422.181671 36.014580,434.702301 45.078041,439.730591 
	C52.626640,443.918457 60.528702,445.528717 69.484222,444.876526 
	C75.422340,444.906952 80.960808,445.388702 86.359146,444.727081 
	C96.318420,443.506500 106.189575,441.576355 116.116302,440.065704 
	C117.059448,439.922180 118.135994,440.655212 119.081848,441.378296 
	C121.336723,451.295258 123.491936,460.861084 126.062340,470.313965 
	C127.176674,474.412048 128.549545,478.671783 130.856323,482.163574 
	C135.175049,488.700867 142.130203,488.569763 149.486938,487.867584 
	C204.112946,487.956024 258.275940,487.984955 312.438934,487.963074 
	C313.846497,487.962524 315.325073,487.591675 316.649689,487.080444 
	C324.657227,483.989777 329.066498,474.905548 324.806885,463.327881 
	C321.135742,453.349640 317.634064,443.288422 314.590759,433.104553 
	C309.685913,416.691345 308.306702,399.815125 311.174408,382.954132 
	C314.562592,363.032928 325.070618,346.279449 336.429169,329.963501 
	C345.584869,316.811890 354.877869,303.670319 362.849304,289.799805 
	C375.000977,268.655518 380.456604,245.492996 380.574982,221.023438 
	C385.201965,221.003784 389.369629,220.922409 393.533478,221.013809 
	C411.126129,221.399933 426.375214,214.790573 438.915497,203.292496 
	C459.883911,184.066742 468.089264,159.911591 461.901215,131.779648 
	C457.984894,113.975479 448.514496,99.518684 433.487061,88.796349 
	C416.624176,76.764374 398.046173,72.579781 377.722137,76.015694 
	C360.392334,78.945412 345.872955,86.893120 334.731293,100.669144 
	C332.175385,103.829407 329.634979,107.002228 326.758484,110.042236 
	C319.775238,105.319069 313.455963,100.114807 306.408447,96.232422 
	C276.414886,79.709297 244.047302,73.513168 209.575195,75.090866 
	C202.955292,75.659576 196.775467,76.268806 190.606674,76.974342 
	C171.974197,79.105370 154.160797,84.119164 136.897369,91.490623 
	C109.648399,103.125893 86.162018,119.556625 68.107208,143.340271 
	C49.833843,167.411804 39.988346,194.318680 39.940781,224.714691 
	C39.927887,232.955780 39.837467,241.290283 38.648911,249.416061 
	C36.350742,265.127869 28.331350,278.511444 19.878592,291.612305 
	C14.017473,300.696442 8.253082,309.842957 2.392540,318.927490 
	C2.245120,319.156006 1.478067,318.984802 1.000000,319.000000 
z"/>
<path fill="#70DA40" opacity="1.000000" stroke="none" 
	d="
M513.000000,167.531342 
	C512.009766,170.148468 510.576385,172.203079 510.098267,174.460037 
	C505.545776,195.951111 495.522034,214.461899 480.867706,230.784988 
	C470.989258,241.788376 459.189545,250.050659 446.629364,257.471619 
	C453.149384,260.026031 455.164215,262.511810 454.999542,267.798462 
	C454.838257,272.977509 449.387451,276.815796 444.365570,275.101685 
	C436.208740,272.317474 428.047699,269.526672 420.001068,266.444611 
	C413.598419,263.992249 411.684753,259.483490 414.059631,253.149734 
	C417.030884,245.225250 420.073212,237.325058 423.244812,229.479034 
	C424.844757,225.520996 428.285553,223.740509 432.282227,224.220993 
	C436.867401,224.772232 439.683502,228.103088 439.806976,232.544922 
	C439.891296,235.578140 438.352814,238.656479 437.304626,242.599686 
	C449.907532,235.228943 460.971649,227.559250 469.993195,216.771866 
	C479.612274,205.269974 486.877716,192.704086 491.154449,178.452362 
	C499.010742,152.272491 496.982727,126.882843 485.139313,102.099541 
	C480.106812,91.568558 473.601105,82.089394 465.390991,74.184258 
	C449.829956,59.201237 431.498810,48.995033 409.890076,44.889145 
	C392.197266,41.527321 374.808044,42.053795 357.984192,48.145126 
	C348.734680,51.494034 339.968231,56.393661 331.385254,61.296524 
	C324.844360,65.032845 317.915771,63.781082 316.361633,56.771324 
	C315.473694,52.766392 317.101501,49.533367 320.254547,47.403488 
	C336.278198,36.579475 353.616455,29.256987 373.040253,26.897064 
	C391.451202,24.660198 409.740570,25.276247 427.163391,31.242645 
	C469.780457,45.836754 497.760620,74.863525 509.831207,118.635574 
	C510.723022,121.869614 511.442078,125.151306 512.620728,128.205414 
	C513.000000,141.020889 513.000000,154.041794 513.000000,167.531342 
z"/>
<path fill="#E3AB74" opacity="1.000000" stroke="none" 
	d="
M69.021362,444.812103 
	C60.528702,445.528717 52.626640,443.918457 45.078041,439.730591 
	C36.014580,434.702301 33.604420,422.181671 35.505882,413.988953 
	C37.068890,407.254486 39.005993,400.606873 40.845879,393.661865 
	C34.895443,391.050903 29.820541,387.367279 28.977932,379.994873 
	C28.221277,373.374634 32.543159,370.278870 36.290592,368.220184 
	C32.980511,364.588928 28.896200,361.150360 26.166925,356.851471 
	C22.727911,351.434692 27.651321,346.946045 29.580162,342.405151 
	C19.401009,340.754333 8.503642,342.079773 1.252139,332.668579 
	C1.000000,328.643097 1.000000,324.286194 1.000000,319.464661 
	C1.478067,318.984802 2.245120,319.156006 2.392540,318.927490 
	C8.253082,309.842957 14.017473,300.696442 19.878592,291.612305 
	C28.331350,278.511444 36.350742,265.127869 38.648911,249.416061 
	C39.837467,241.290283 39.927887,232.955780 39.940781,224.714691 
	C39.988346,194.318680 49.833843,167.411804 68.107208,143.340271 
	C86.162018,119.556625 109.648399,103.125893 136.897369,91.490623 
	C154.160797,84.119164 171.974197,79.105370 190.606674,76.974342 
	C196.775467,76.268806 202.955292,75.659576 209.395996,75.418915 
	C207.118027,76.306717 204.584000,76.844322 202.028748,77.247452 
	C176.985321,81.198410 153.127426,88.650261 130.892700,101.032112 
	C103.615486,116.221992 81.814049,136.930573 67.229507,164.706711 
	C56.904381,184.370819 52.668163,205.642990 52.023598,227.712158 
	C51.814869,234.858688 52.390636,242.122269 51.308228,249.131668 
	C47.883556,271.308929 35.006969,288.832581 22.255030,306.420929 
	C18.990795,310.923218 16.274050,316.118469 14.590684,321.404541 
	C11.765718,330.275421 15.764879,336.916687 24.759432,339.290466 
	C28.733574,340.339233 32.954334,340.442902 37.056698,341.021301 
	C38.878502,341.278168 40.684387,341.647980 42.704826,342.002991 
	C35.769276,356.274933 36.041515,357.177032 50.243118,367.764160 
	C45.930279,370.520233 41.916069,373.252258 41.876297,379.213196 
	C41.835087,385.389740 45.386337,388.818054 50.077084,391.272064 
	C53.793949,393.216522 53.890511,395.337891 52.595043,398.885986 
	C50.778347,403.861664 49.217472,409.012512 48.305630,414.221191 
	C45.731178,428.927399 51.330223,437.931366 65.371101,442.647217 
	C66.682304,443.087616 67.808998,444.077393 69.021362,444.812103 
z"/>
<path fill="#FBBD80" opacity="1.000000" stroke="none" 
	d="
M69.484222,444.876526 
	C67.808998,444.077393 66.682304,443.087616 65.371101,442.647217 
	C51.330223,437.931366 45.731178,428.927399 48.305630,414.221191 
	C49.217472,409.012512 50.778347,403.861664 52.595043,398.885986 
	C53.890511,395.337891 53.793949,393.216522 50.077084,391.272064 
	C45.386337,388.818054 41.835087,385.389740 41.876297,379.213196 
	C41.916069,373.252258 45.930279,370.520233 50.243118,367.764160 
	C36.041515,357.177032 35.769276,356.274933 42.704826,342.002991 
	C40.684387,341.647980 38.878502,341.278168 37.056698,341.021301 
	C32.954334,340.442902 28.733574,340.339233 24.759432,339.290466 
	C15.764879,336.916687 11.765718,330.275421 14.590684,321.404541 
	C16.274050,316.118469 18.990795,310.923218 22.255030,306.420929 
	C35.006969,288.832581 47.883556,271.308929 51.308228,249.131668 
	C52.390636,242.122269 51.814869,234.858688 52.023598,227.712158 
	C52.668163,205.642990 56.904381,184.370819 67.229507,164.706711 
	C81.814049,136.930573 103.615486,116.221992 130.892700,101.032112 
	C153.127426,88.650261 176.985321,81.198410 202.028748,77.247452 
	C204.584000,76.844322 207.118027,76.306717 209.841110,75.503464 
	C244.047302,73.513168 276.414886,79.709297 306.408447,96.232422 
	C313.455963,100.114807 319.775238,105.319069 326.794830,110.415070 
	C326.634521,112.289635 326.222992,113.721504 325.566772,115.030754 
	C304.690552,156.681503 326.753510,206.262619 371.649902,218.568802 
	C374.484192,219.345688 377.293152,220.214935 380.113892,221.041214 
	C380.456604,245.492996 375.000977,268.655518 362.849304,289.799805 
	C354.877869,303.670319 345.584869,316.811890 336.429169,329.963501 
	C325.070618,346.279449 314.562592,363.032928 311.174408,382.954132 
	C308.306702,399.815125 309.685913,416.691345 314.590759,433.104553 
	C317.634064,443.288422 321.135742,453.349640 324.806885,463.327881 
	C329.066498,474.905548 324.657227,483.989777 316.649689,487.080444 
	C315.325073,487.591675 313.846497,487.962524 312.438934,487.963074 
	C258.275940,487.984955 204.112946,487.956024 149.378967,487.562042 
	C142.628555,482.519836 139.721786,476.103882 138.340530,468.633606 
	C137.104004,461.946014 135.329041,455.354980 133.702988,448.743134 
	C131.320084,439.053741 131.287659,439.069061 121.633804,440.818085 
	C120.822830,440.964996 119.979111,440.931183 119.150612,440.981323 
	C118.135994,440.655212 117.059448,439.922180 116.116302,440.065704 
	C106.189575,441.576355 96.318420,443.506500 86.359146,444.727081 
	C80.960808,445.388702 75.422340,444.906952 69.484222,444.876526 
M296.105469,253.823380 
	C297.724335,252.528946 299.165527,250.823959 301.000824,250.029541 
	C304.343903,248.582443 307.899811,247.604965 311.405762,246.562164 
	C315.285156,245.408295 317.166595,243.040054 317.011780,238.869293 
	C316.832672,234.043365 316.840210,229.201172 317.009399,224.374542 
	C317.153351,220.267868 315.578339,217.370789 311.494690,216.720230 
	C300.638153,214.990723 295.845001,208.457397 291.702148,198.317551 
	C287.421326,187.840118 285.541016,179.343292 292.656158,169.985596 
	C294.734833,167.251724 293.919952,164.331451 291.440826,161.905273 
	C287.630035,158.175873 283.842438,154.420593 280.126251,150.597351 
	C277.540131,147.936737 274.587708,147.285965 271.613556,149.436859 
	C262.798279,155.812088 254.901962,155.014679 244.663834,150.668289 
	C234.052963,146.163666 226.603928,141.465576 224.914322,129.646774 
	C224.425156,126.225044 221.632248,124.913589 218.198563,124.981728 
	C214.034225,125.064339 209.866974,124.996574 205.700974,124.998329 
	C197.484116,125.001793 196.809631,125.046768 194.871780,132.884506 
	C192.785446,141.322723 189.192368,147.614334 179.702805,148.645050 
	C178.743927,148.749191 177.712799,149.155365 176.924561,149.715820 
	C167.425888,156.469559 158.148544,156.364410 148.793350,149.289322 
	C146.029434,147.199051 143.173050,148.040375 140.744476,150.542816 
	C137.031357,154.368866 133.256744,158.138840 129.411240,161.831573 
	C126.707443,164.427948 126.092979,167.436691 128.275101,170.334747 
	C135.087402,179.382172 133.460312,187.579865 129.258911,197.780533 
	C124.996895,208.128357 120.350380,215.313416 108.893677,216.920197 
	C105.220093,217.435410 103.786293,220.151947 103.883003,223.851105 
	C104.013611,228.846878 104.061943,233.854370 103.868095,238.846085 
	C103.707153,242.990326 105.307838,245.785950 109.412247,246.416412 
	C120.120537,248.061279 124.755943,254.510437 128.887955,264.484894 
	C133.292679,275.117676 135.251495,283.765503 128.056656,293.311554 
	C125.931534,296.131165 127.000481,298.950378 129.458130,301.335419 
	C133.164825,304.932678 136.868683,308.540619 140.408218,312.299866 
	C143.120987,315.181030 146.204544,315.929443 149.299301,313.603485 
	C158.372742,306.784058 166.554672,308.652191 176.729523,312.722473 
	C187.246155,316.929535 194.021378,321.924622 195.765686,333.190765 
	C196.338058,336.887695 199.123337,338.198975 202.780762,338.106171 
	C207.776749,337.979340 212.783936,337.928741 217.775833,338.119843 
	C221.969803,338.280396 224.671875,336.514893 225.272964,332.461151 
	C226.870773,321.685638 233.494522,317.185852 243.373520,313.023285 
	C254.008041,308.542389 262.663879,306.723480 272.176147,313.922028 
	C274.778961,315.891754 277.540405,315.092102 279.828705,312.789429 
	C283.704773,308.889038 287.579956,304.986969 291.511108,301.142426 
	C294.021515,298.687378 294.285400,296.032562 292.672546,292.996918 
	C290.876556,289.616760 288.749237,286.322296 287.592285,282.724792 
	C286.823364,280.333923 286.827576,277.238770 287.662079,274.873932 
	C290.090027,267.993561 293.109985,261.322144 296.105469,253.823380 
z"/>
<path fill="#0693FC" opacity="1.000000" stroke="none" 
	d="
M380.574982,221.023438 
	C377.293152,220.214935 374.484192,219.345688 371.649902,218.568802 
	C326.753510,206.262619 304.690552,156.681503 325.566772,115.030754 
	C326.222992,113.721504 326.634521,112.289635 327.123779,110.542099 
	C329.634979,107.002228 332.175385,103.829407 334.731293,100.669144 
	C345.872955,86.893120 360.392334,78.945412 377.722137,76.015694 
	C398.046173,72.579781 416.624176,76.764374 433.487061,88.796349 
	C448.514496,99.518684 457.984894,113.975479 461.901215,131.779648 
	C468.089264,159.911591 459.883911,184.066742 438.915497,203.292496 
	C426.375214,214.790573 411.126129,221.399933 393.533478,221.013809 
	C389.369629,220.922409 385.201965,221.003784 380.574982,221.023438 
M392.867493,197.679642 
	C394.678192,197.425369 396.495026,197.208405 398.298645,196.911179 
	C420.959991,193.176437 437.823761,174.646240 439.735352,151.395065 
	C441.508179,129.831421 427.518219,108.655731 406.495483,101.530197 
	C402.512238,100.180099 398.175812,99.872032 393.100128,98.838654 
	C389.120972,99.016792 385.032928,98.665504 381.180084,99.457832 
	C353.350708,105.180893 336.427734,130.971588 342.029846,158.789322 
	C346.620270,181.583649 369.658813,199.443222 392.867493,197.679642 
z"/>
<path fill="#E3AB74" opacity="1.000000" stroke="none" 
	d="
M119.081848,441.378296 
	C119.979111,440.931183 120.822830,440.964996 121.633804,440.818085 
	C131.287659,439.069061 131.320084,439.053741 133.702988,448.743134 
	C135.329041,455.354980 137.104004,461.946014 138.340530,468.633606 
	C139.721786,476.103882 142.628555,482.519836 148.915955,487.495789 
	C142.130203,488.569763 135.175049,488.700867 130.856323,482.163574 
	C128.549545,478.671783 127.176674,474.412048 126.062340,470.313965 
	C123.491936,460.861084 121.336723,451.295258 119.081848,441.378296 
z"/>
<path fill="#305374" opacity="1.000000" stroke="none" 
	d="
M296.001617,254.196075 
	C293.109985,261.322144 290.090027,267.993561 287.662079,274.873932 
	C286.827576,277.238770 286.823364,280.333923 287.592285,282.724792 
	C288.749237,286.322296 290.876556,289.616760 292.672546,292.996918 
	C294.285400,296.032562 294.021515,298.687378 291.511108,301.142426 
	C287.579956,304.986969 283.704773,308.889038 279.828705,312.789429 
	C277.540405,315.092102 274.778961,315.891754 272.176147,313.922028 
	C262.663879,306.723480 254.008041,308.542389 243.373520,313.023285 
	C233.494522,317.185852 226.870773,321.685638 225.272964,332.461151 
	C224.671875,336.514893 221.969803,338.280396 217.775833,338.119843 
	C212.783936,337.928741 207.776749,337.979340 202.780762,338.106171 
	C199.123337,338.198975 196.338058,336.887695 195.765686,333.190765 
	C194.021378,321.924622 187.246155,316.929535 176.729523,312.722473 
	C166.554672,308.652191 158.372742,306.784058 149.299301,313.603485 
	C146.204544,315.929443 143.120987,315.181030 140.408218,312.299866 
	C136.868683,308.540619 133.164825,304.932678 129.458130,301.335419 
	C127.000481,298.950378 125.931534,296.131165 128.056656,293.311554 
	C135.251495,283.765503 133.292679,275.117676 128.887955,264.484894 
	C124.755943,254.510437 120.120537,248.061279 109.412247,246.416412 
	C105.307838,245.785950 103.707153,242.990326 103.868095,238.846085 
	C104.061943,233.854370 104.013611,228.846878 103.883003,223.851105 
	C103.786293,220.151947 105.220093,217.435410 108.893677,216.920197 
	C120.350380,215.313416 124.996895,208.128357 129.258911,197.780533 
	C133.460312,187.579865 135.087402,179.382172 128.275101,170.334747 
	C126.092979,167.436691 126.707443,164.427948 129.411240,161.831573 
	C133.256744,158.138840 137.031357,154.368866 140.744476,150.542816 
	C143.173050,148.040375 146.029434,147.199051 148.793350,149.289322 
	C158.148544,156.364410 167.425888,156.469559 176.924561,149.715820 
	C177.712799,149.155365 178.743927,148.749191 179.702805,148.645050 
	C189.192368,147.614334 192.785446,141.322723 194.871780,132.884506 
	C196.809631,125.046768 197.484116,125.001793 205.700974,124.998329 
	C209.866974,124.996574 214.034225,125.064339 218.198563,124.981728 
	C221.632248,124.913589 224.425156,126.225044 224.914322,129.646774 
	C226.603928,141.465576 234.052963,146.163666 244.663834,150.668289 
	C254.901962,155.014679 262.798279,155.812088 271.613556,149.436859 
	C274.587708,147.285965 277.540131,147.936737 280.126251,150.597351 
	C283.842438,154.420593 287.630035,158.175873 291.440826,161.905273 
	C293.919952,164.331451 294.734833,167.251724 292.656158,169.985596 
	C285.541016,179.343292 287.421326,187.840118 291.702148,198.317551 
	C295.845001,208.457397 300.638153,214.990723 311.494690,216.720230 
	C315.578339,217.370789 317.153351,220.267868 317.009399,224.374542 
	C316.840210,229.201172 316.832672,234.043365 317.011780,238.869293 
	C317.166595,243.040054 315.285156,245.408295 311.405762,246.562164 
	C307.899811,247.604965 304.343903,248.582443 301.000824,250.029541 
	C299.165527,250.823959 297.724335,252.528946 296.001617,254.196075 
M211.264923,175.279266 
	C207.143814,175.694855 202.917130,175.660141 198.918381,176.597626 
	C168.246490,183.788345 150.201187,210.764801 155.059341,241.874619 
	C159.088303,267.674561 185.479431,289.253143 211.877151,287.768982 
	C213.855057,287.523438 215.836472,287.303131 217.810349,287.028595 
	C247.270905,282.930695 267.713135,257.827179 266.148590,227.677353 
	C264.685974,199.491623 240.895462,176.577118 211.264923,175.279266 
z"/>
<path fill="#E9F4FC" opacity="1.000000" stroke="none" 
	d="
M394.002350,99.083176 
	C398.175812,99.872032 402.512238,100.180099 406.495483,101.530197 
	C427.518219,108.655731 441.508179,129.831421 439.735352,151.395065 
	C437.823761,174.646240 420.959991,193.176437 398.298645,196.911179 
	C396.495026,197.208405 394.678192,197.425369 392.304199,197.342117 
	C391.012726,196.643707 390.317535,196.177658 389.551544,195.937454 
	C374.427307,191.194733 363.490082,181.866302 357.026794,167.191681 
	C348.594757,148.047089 354.617157,123.410416 370.917694,110.269226 
	C377.820679,104.704140 385.638306,101.428200 394.002350,99.083176 
M398.624786,126.748978 
	C398.624451,126.250519 398.631470,125.751923 398.622772,125.253609 
	C398.498535,118.138824 395.711761,114.302071 390.591431,114.192596 
	C385.314789,114.079781 382.251495,118.182076 382.226166,125.431656 
	C382.209564,130.177887 382.223022,134.924225 382.223022,140.029816 
	C376.222778,140.029816 370.932068,139.959229 365.644073,140.049301 
	C360.161682,140.142700 356.742401,143.209427 356.635040,147.927612 
	C356.522003,152.895126 359.945496,156.095108 365.728851,156.164291 
	C373.370819,156.255722 381.015106,156.236603 388.657684,156.176682 
	C395.778137,156.120850 398.498322,153.384171 398.602936,146.133804 
	C398.691650,139.987381 398.623474,133.838669 398.624786,126.748978 
z"/>
<path fill="#D2DDE4" opacity="1.000000" stroke="none" 
	d="
M393.551239,98.960915 
	C385.638306,101.428200 377.820679,104.704140 370.917694,110.269226 
	C354.617157,123.410416 348.594757,148.047089 357.026794,167.191681 
	C363.490082,181.866302 374.427307,191.194733 389.551544,195.937454 
	C390.317535,196.177658 391.012726,196.643707 391.909607,197.295868 
	C369.658813,199.443222 346.620270,181.583649 342.029846,158.789322 
	C336.427734,130.971588 353.350708,105.180893 381.180084,99.457832 
	C385.032928,98.665504 389.120972,99.016792 393.551239,98.960915 
z"/>
<path fill="#EBF5FC" opacity="1.000000" stroke="none" 
	d="
M212.085388,175.604828 
	C240.895462,176.577118 264.685974,199.491623 266.148590,227.677353 
	C267.713135,257.827179 247.270905,282.930695 217.810349,287.028595 
	C215.836472,287.303131 213.855057,287.523438 211.325333,287.409973 
	C209.439194,286.429321 208.158554,285.625000 206.762131,285.214752 
	C194.863052,281.718994 185.179504,275.010376 177.766663,265.113708 
	C157.583344,238.167557 165.530624,199.706100 194.873856,183.105453 
	C200.291504,180.040466 206.332245,178.076813 212.085388,175.604828 
z"/>
<path fill="#D2DBE2" opacity="1.000000" stroke="none" 
	d="
M211.675156,175.442047 
	C206.332245,178.076813 200.291504,180.040466 194.873856,183.105453 
	C165.530624,199.706100 157.583344,238.167557 177.766663,265.113708 
	C185.179504,275.010376 194.863052,281.718994 206.762131,285.214752 
	C208.158554,285.625000 209.439194,286.429321 210.917725,287.357910 
	C185.479431,289.253143 159.088303,267.674561 155.059341,241.874619 
	C150.201187,210.764801 168.246490,183.788345 198.918381,176.597626 
	C202.917130,175.660141 207.143814,175.694855 211.675156,175.442047 
z"/>
<path fill="#0B95FC" opacity="1.000000" stroke="none" 
	d="
M398.624756,127.219978 
	C398.623474,133.838669 398.691650,139.987381 398.602936,146.133804 
	C398.498322,153.384171 395.778137,156.120850 388.657684,156.176682 
	C381.015106,156.236603 373.370819,156.255722 365.728851,156.164291 
	C359.945496,156.095108 356.522003,152.895126 356.635040,147.927612 
	C356.742401,143.209427 360.161682,140.142700 365.644073,140.049301 
	C370.932068,139.959229 376.222778,140.029816 382.223022,140.029816 
	C382.223022,134.924225 382.209564,130.177887 382.226166,125.431656 
	C382.251495,118.182076 385.314789,114.079781 390.591431,114.192596 
	C395.711761,114.302071 398.498535,118.138824 398.622772,125.253609 
	C398.631470,125.751923 398.624451,126.250519 398.624756,127.219978 
z"/>
</svg>